<svg xmlns="http://www.w3.org/2000/svg" viewBox="0 0 640 360" role="img" aria-label="Quiz Room">
  <defs>
    <linearGradient id="bg" x1="0" y1="0" x2="1" y2="1"><stop stop-color="#111a3c"/><stop offset="1" stop-color="#080d20"/></linearGradient>
    <radialGradient id="glow"><stop stop-color="#6366f1" stop-opacity=".55"/><stop offset="1" stop-color="#6366f1" stop-opacity="0"/></radialGradient>
    <linearGradient id="gold"><stop stop-color="#fde68a"/><stop offset="1" stop-color="#f59e0b"/></linearGradient>
  </defs>
  <rect width="640" height="360" rx="34" fill="url(#bg)"/>
  <circle cx="320" cy="160" r="210" fill="url(#glow)"/>
  <g fill="none" stroke="#818cf8" stroke-opacity=".2"><path d="M0 70h640M0 290h640M100 0v360M540 0v360"/><circle cx="320" cy="180" r="116"/></g>
  <g transform="translate(232 69)">
    <rect x="0" y="36" width="176" height="142" rx="48" fill="#4f46e5" stroke="#c7d2fe" stroke-width="7"/>
    <rect x="22" y="59" width="132" height="78" rx="30" fill="#080d20"/>
    <circle cx="62" cy="97" r="13" fill="#67e8f9"/><circle cx="114" cy="97" r="13" fill="#67e8f9"/>
    <path d="M62 121c16 12 37 12 52 0" stroke="#a5b4fc" stroke-width="7" stroke-linecap="round"/>
    <path d="M88 36V12" stroke="#a5b4fc" stroke-width="9" stroke-linecap="round"/><circle cx="88" cy="7" r="11" fill="url(#gold)"/>
    <path d="M45 178v39M131 178v39" stroke="#818cf8" stroke-width="15" stroke-linecap="round"/>
  </g>
  <g transform="translate(413 55)"><circle r="42" fill="url(#gold)" stroke="#fff7cc" stroke-width="5"/><path d="M-12-10c2-18 31-20 31 1 0 15-17 13-17 28M2 30h.1" fill="none" stroke="#51330b" stroke-width="8" stroke-linecap="round"/></g>
  <text x="320" y="324" fill="#e0e7ff" font-family="Arial,sans-serif" font-size="28" font-weight="800" text-anchor="middle" letter-spacing="4">QUIZ ROOM</text>
</svg>
