<svg xmlns="http://www.w3.org/2000/svg" viewBox="0 0 1920 1080" preserveAspectRatio="xMidYMid slice">
  <defs>
    <linearGradient id="roomShade" x1="0" y1="0" x2="1" y2="1">
      <stop stop-color="#1b1d24"/>
      <stop offset=".62" stop-color="#181a21"/>
      <stop offset="1" stop-color="#15171d"/>
    </linearGradient>
    <path id="hexCell" d="M17 1h34l16 28.5L51 58H17L1 29.5Z"/>
    <pattern id="hexGrid" width="102" height="118" patternUnits="userSpaceOnUse">
      <g fill="#242730" stroke="#171920" stroke-width="2">
        <use href="#hexCell" x="0" y="0"/>
        <use href="#hexCell" x="0" y="59"/>
        <use href="#hexCell" x="51" y="29.5"/>
        <use href="#hexCell" x="51" y="88.5"/>
      </g>
    </pattern>
    <clipPath id="lowerField">
      <path d="M1920 0v1080H760l42-74-40-70 58-102 2-91 83-42-30-79 84-82 71-8 13-104 64-86 95-30 50-85 69 15 39-67 100-35 44-70h166Z"/>
    </clipPath>
    <clipPath id="upperField">
      <path d="M1290 0h630v390l-65 40-70-5-53-59-104 16-65-50-19-78-69-7-20-85-82-18Z"/>
    </clipPath>
  </defs>
  <rect width="1920" height="1080" fill="url(#roomShade)"/>
  <g opacity=".68" clip-path="url(#lowerField)"><rect x="700" width="1220" height="1080" fill="url(#hexGrid)"/></g>
  <g opacity=".58" clip-path="url(#upperField)"><rect x="1220" width="700" height="480" fill="url(#hexGrid)"/></g>
  <g fill="#242730" stroke="#171920" stroke-width="2" opacity=".62">
    <use href="#hexCell" x="1234" y="157"/>
    <use href="#hexCell" x="1033" y="312"/>
    <use href="#hexCell" x="898" y="545"/>
    <use href="#hexCell" x="829" y="701"/>
    <use href="#hexCell" x="765" y="817"/>
  </g>
</svg>
